<mxfile host="app.diagrams.net" modified="2020-05-17T12:40:35.374Z" agent="5.0 (X11; Linux x86_64) AppleWebKit/537.36 (KHTML, like Gecko) Chrome/80.0.3987.149 Safari/537.36" etag="IWggqvgh0Xn6S-jU3Muv" version="13.1.2" type="github">
  <diagram id="V-Iv_9v_B2ZesFRBJzNe" name="Page-1">
    <mxGraphModel dx="1651" dy="494" grid="1" gridSize="10" guides="1" tooltips="1" connect="1" arrows="1" fold="1" page="1" pageScale="1" pageWidth="850" pageHeight="1100" math="0" shadow="0">
      <root>
        <mxCell id="0" />
        <mxCell id="1" parent="0" />
        <mxCell id="uvU2-EduAbgct_iCbx0k-18" style="edgeStyle=orthogonalEdgeStyle;rounded=0;orthogonalLoop=1;jettySize=auto;html=1;exitX=1;exitY=0.5;exitDx=0;exitDy=0;exitPerimeter=0;" edge="1" parent="1" source="uvU2-EduAbgct_iCbx0k-1" target="uvU2-EduAbgct_iCbx0k-3">
          <mxGeometry relative="1" as="geometry" />
        </mxCell>
        <mxCell id="uvU2-EduAbgct_iCbx0k-1" value="" style="outlineConnect=0;dashed=0;verticalLabelPosition=bottom;verticalAlign=top;align=center;html=1;shape=mxgraph.aws3.classic_load_balancer;fillColor=#F58534;gradientColor=none;" vertex="1" parent="1">
          <mxGeometry x="150" y="90" width="69" height="72" as="geometry" />
        </mxCell>
        <mxCell id="uvU2-EduAbgct_iCbx0k-25" style="edgeStyle=orthogonalEdgeStyle;rounded=0;orthogonalLoop=1;jettySize=auto;html=1;exitX=0.5;exitY=1;exitDx=0;exitDy=0;exitPerimeter=0;fontFamily=Helvetica;" edge="1" parent="1">
          <mxGeometry relative="1" as="geometry">
            <mxPoint x="190" y="380" as="targetPoint" />
            <mxPoint x="220" y="384.5" as="sourcePoint" />
          </mxGeometry>
        </mxCell>
        <mxCell id="uvU2-EduAbgct_iCbx0k-19" style="edgeStyle=orthogonalEdgeStyle;rounded=0;orthogonalLoop=1;jettySize=auto;html=1;entryX=-0.079;entryY=0.32;entryDx=0;entryDy=0;entryPerimeter=0;" edge="1" parent="1" source="uvU2-EduAbgct_iCbx0k-3" target="uvU2-EduAbgct_iCbx0k-14">
          <mxGeometry relative="1" as="geometry" />
        </mxCell>
        <mxCell id="uvU2-EduAbgct_iCbx0k-3" value="" style="pointerEvents=1;shadow=0;dashed=0;html=1;strokeColor=#001DBC;fillColor=#0050ef;labelPosition=center;verticalLabelPosition=bottom;verticalAlign=top;align=center;outlineConnect=0;shape=mxgraph.veeam.cluster;fontColor=#ffffff;" vertex="1" parent="1">
          <mxGeometry x="280" y="101.4" width="102.8" height="49.2" as="geometry" />
        </mxCell>
        <mxCell id="uvU2-EduAbgct_iCbx0k-15" style="edgeStyle=orthogonalEdgeStyle;rounded=0;orthogonalLoop=1;jettySize=auto;html=1;exitX=0.72;exitY=0.99;exitDx=0;exitDy=0;exitPerimeter=0;entryX=0;entryY=0.5;entryDx=0;entryDy=0;entryPerimeter=0;" edge="1" parent="1" source="uvU2-EduAbgct_iCbx0k-6" target="uvU2-EduAbgct_iCbx0k-1">
          <mxGeometry relative="1" as="geometry" />
        </mxCell>
        <mxCell id="uvU2-EduAbgct_iCbx0k-6" value="" style="html=1;dashed=0;whitespace=wrap;fillColor=#2875E2;strokeColor=#ffffff;points=[[0.005,0.63,0],[0.1,0.2,0],[0.9,0.2,0],[0.5,0,0],[0.995,0.63,0],[0.72,0.99,0],[0.5,1,0],[0.28,0.99,0]];shape=mxgraph.kubernetes.icon;prIcon=deploy" vertex="1" parent="1">
          <mxGeometry x="40" y="30" width="50" height="48" as="geometry" />
        </mxCell>
        <mxCell id="uvU2-EduAbgct_iCbx0k-7" value="" style="shadow=0;dashed=0;html=1;labelPosition=center;verticalLabelPosition=bottom;verticalAlign=top;align=center;outlineConnect=0;shape=mxgraph.veeam.3d.datastore_volume;" vertex="1" parent="1">
          <mxGeometry x="106" y="330" width="54" height="34" as="geometry" />
        </mxCell>
        <mxCell id="uvU2-EduAbgct_iCbx0k-9" value="loadbalncer" style="text;html=1;align=center;verticalAlign=middle;resizable=0;points=[];autosize=1;fontStyle=1;fontFamily=Helvetica;" vertex="1" parent="1">
          <mxGeometry x="150" y="70" width="80" height="20" as="geometry" />
        </mxCell>
        <mxCell id="uvU2-EduAbgct_iCbx0k-16" value="Text" style="text;html=1;align=center;verticalAlign=middle;resizable=0;points=[];autosize=1;" vertex="1" parent="1">
          <mxGeometry x="-12" y="128" width="40" height="20" as="geometry" />
        </mxCell>
        <mxCell id="uvU2-EduAbgct_iCbx0k-14" value="" style="aspect=fixed;html=1;points=[];align=center;image;fontSize=12;image=img/lib/mscae/SQL_Database_generic.svg;" vertex="1" parent="1">
          <mxGeometry x="450" y="110" width="38" height="50" as="geometry" />
        </mxCell>
        <mxCell id="uvU2-EduAbgct_iCbx0k-8" value="" style="shadow=0;dashed=0;html=1;labelPosition=center;verticalLabelPosition=bottom;verticalAlign=top;align=center;outlineConnect=0;shape=mxgraph.veeam.3d.datastore_volume;fontFamily=Verdana;fontStyle=1" vertex="1" parent="1">
          <mxGeometry x="311.4" y="210" width="40" height="34" as="geometry" />
        </mxCell>
        <mxCell id="uvU2-EduAbgct_iCbx0k-24" value="" style="edgeStyle=orthogonalEdgeStyle;rounded=0;orthogonalLoop=1;jettySize=auto;html=1;" edge="1" parent="1" source="uvU2-EduAbgct_iCbx0k-3" target="uvU2-EduAbgct_iCbx0k-8">
          <mxGeometry relative="1" as="geometry">
            <mxPoint x="331.4000000000001" y="150.60000000000002" as="sourcePoint" />
            <mxPoint x="341.4000000000001" y="230.60000000000002" as="targetPoint" />
          </mxGeometry>
        </mxCell>
      </root>
    </mxGraphModel>
  </diagram>
</mxfile>
